HIERARCHY
ROOT Hips
{
	OFFSET -14.64140 90.27770 -84.91600
	CHANNELS 6 Xposition Yposition Zposition Zrotation Xrotation Yrotation
	JOINT Spine
	{
		OFFSET 0.00000 13.20850 -1.60436
		CHANNELS 3 Zrotation Xrotation Yrotation
		JOINT Spine1
		{
			OFFSET 0.00000 8.61716 0.00000
			CHANNELS 3 Zrotation Xrotation Yrotation
			JOINT Spine2
			{
				OFFSET 0.00000 8.61717 0.00000
				CHANNELS 3 Zrotation Xrotation Yrotation
				JOINT Spine3
				{
					OFFSET 0.00000 8.61717 0.00000
					CHANNELS 3 Zrotation Xrotation Yrotation
					JOINT Neck
					{
						OFFSET 0.00000 11.07920 1.10792
						CHANNELS 3 Zrotation Xrotation Yrotation
						JOINT Neck1
						{
							OFFSET 0.00000 7.08032 0.00000
							CHANNELS 3 Zrotation Xrotation Yrotation
							JOINT Head
							{
								OFFSET 0.00000 7.08031 0.00000
								CHANNELS 3 Zrotation Xrotation Yrotation
								End site
								{
									OFFSET 0.00000 0.00000 0.00000
								}
							}
						}
					}
					JOINT RightShoulder
					{
						OFFSET -0.01000 7.91373 5.19711
						CHANNELS 3 Zrotation Xrotation Yrotation
						JOINT RightArm
						{
							OFFSET -18.41580 0.00000 0.00000
							CHANNELS 3 Zrotation Xrotation Yrotation
							JOINT RightForeArm
							{
								OFFSET -29.11090 0.00000 0.00000
								CHANNELS 3 Zrotation Xrotation Yrotation
								JOINT RightHand
								{
									OFFSET -24.65040 0.00000 0.00000
									CHANNELS 3 Zrotation Xrotation Yrotation
									JOINT RightHandThumb1
									{
										OFFSET -5.35114 -0.85590 3.97906
										CHANNELS 3 Zrotation Xrotation Yrotation
										JOINT RightHandThumb2
										{
											OFFSET -4.52789 0.00000 0.00000
											CHANNELS 3 Zrotation Xrotation Yrotation
											JOINT RightHandThumb3
											{
												OFFSET -2.46976 0.00000 0.00000
												CHANNELS 3 Zrotation Xrotation Yrotation
												End site
												{
													OFFSET 0.00000 0.00000 0.00000
												}
											}
										}
									}
									JOINT RightHandIndex1
									{
										OFFSET -14.26970 0.00000 2.88139
										CHANNELS 3 Zrotation Xrotation Yrotation
										JOINT RightHandIndex2
										{
											OFFSET -5.48836 0.00000 0.00000
											CHANNELS 3 Zrotation Xrotation Yrotation
											JOINT RightHandIndex3
											{
												OFFSET -3.01859 0.00000 0.00000
												CHANNELS 3 Zrotation Xrotation Yrotation
												End site
												{
													OFFSET 0.00000 0.00000 0.00000
												}
											}
										}
									}
									JOINT RightHandMiddle1
									{
										OFFSET -14.26970 0.00000 -0.09147
										CHANNELS 3 Zrotation Xrotation Yrotation
										JOINT RightHandMiddle2
										{
											OFFSET -6.17441 0.00000 0.00000
											CHANNELS 3 Zrotation Xrotation Yrotation
											JOINT RightHandMiddle3
											{
												OFFSET -3.56743 0.00000 0.00000
												CHANNELS 3 Zrotation Xrotation Yrotation
												End site
												{
													OFFSET 0.00000 0.00000 0.00000
												}
											}
										}
									}
									JOINT RightHandRing1
									{
										OFFSET -12.69180 0.00000 -3.06433
										CHANNELS 3 Zrotation Xrotation Yrotation
										JOINT RightHandRing2
										{
											OFFSET -5.62556 0.00000 0.00000
											CHANNELS 3 Zrotation Xrotation Yrotation
											JOINT RightHandRing3
											{
												OFFSET -3.56744 0.00000 0.00000
												CHANNELS 3 Zrotation Xrotation Yrotation
												End site
												{
													OFFSET 0.00000 0.00000 0.00000
												}
											}
										}
									}
									JOINT RightHandPinky1
									{
										OFFSET -11.11390 0.00000 -6.03719
										CHANNELS 3 Zrotation Xrotation Yrotation
										JOINT RightHandPinky2
										{
											OFFSET -4.52789 0.00000 0.00000
											CHANNELS 3 Zrotation Xrotation Yrotation
											JOINT RightHandPinky3
											{
												OFFSET -2.46976 0.00000 0.00000
												CHANNELS 3 Zrotation Xrotation Yrotation
												End site
												{
													OFFSET 0.00000 0.00000 0.00000
												}
											}
										}
									}
								}
							}
						}
					}
					JOINT LeftShoulder
					{
						OFFSET 0.01000 7.91373 5.19711
						CHANNELS 3 Zrotation Xrotation Yrotation
						JOINT LeftArm
						{
							OFFSET 18.41580 0.00000 0.00000
							CHANNELS 3 Zrotation Xrotation Yrotation
							JOINT LeftForeArm
							{
								OFFSET 29.11090 0.00000 0.00000
								CHANNELS 3 Zrotation Xrotation Yrotation
								JOINT LeftHand
								{
									OFFSET 24.65040 0.00000 0.00000
									CHANNELS 3 Zrotation Xrotation Yrotation
									JOINT LeftHandThumb1
									{
										OFFSET 5.35114 -0.85590 3.97906
										CHANNELS 3 Zrotation Xrotation Yrotation
										JOINT LeftHandThumb2
										{
											OFFSET 4.52789 0.00000 0.00000
											CHANNELS 3 Zrotation Xrotation Yrotation
											JOINT LeftHandThumb3
											{
												OFFSET 2.46977 0.00000 0.00000
												CHANNELS 3 Zrotation Xrotation Yrotation
												End site
												{
													OFFSET 0.00000 0.00000 0.00000
												}
											}
										}
									}
									JOINT LeftHandIndex1
									{
										OFFSET 14.26970 0.00000 2.88139
										CHANNELS 3 Zrotation Xrotation Yrotation
										JOINT LeftHandIndex2
										{
											OFFSET 5.48836 0.00000 0.00000
											CHANNELS 3 Zrotation Xrotation Yrotation
											JOINT LeftHandIndex3
											{
												OFFSET 3.01859 0.00000 0.00000
												CHANNELS 3 Zrotation Xrotation Yrotation
												End site
												{
													OFFSET 0.00000 0.00000 0.00000
												}
											}
										}
									}
									JOINT LeftHandMiddle1
									{
										OFFSET 14.26970 0.00000 -0.09147
										CHANNELS 3 Zrotation Xrotation Yrotation
										JOINT LeftHandMiddle2
										{
											OFFSET 6.17440 0.00000 0.00000
											CHANNELS 3 Zrotation Xrotation Yrotation
											JOINT LeftHandMiddle3
											{
												OFFSET 3.56744 0.00000 0.00000
												CHANNELS 3 Zrotation Xrotation Yrotation
												End site
												{
													OFFSET 0.00000 0.00000 0.00000
												}
											}
										}
									}
									JOINT LeftHandRing1
									{
										OFFSET 12.69180 0.00000 -3.06433
										CHANNELS 3 Zrotation Xrotation Yrotation
										JOINT LeftHandRing2
										{
											OFFSET 5.62556 0.00000 0.00000
											CHANNELS 3 Zrotation Xrotation Yrotation
											JOINT LeftHandRing3
											{
												OFFSET 3.56744 0.00000 0.00000
												CHANNELS 3 Zrotation Xrotation Yrotation
												End site
												{
													OFFSET 0.00000 0.00000 0.00000
												}
											}
										}
									}
									JOINT LeftHandPinky1
									{
										OFFSET 11.11390 0.00000 -6.03719
										CHANNELS 3 Zrotation Xrotation Yrotation
										JOINT LeftHandPinky2
										{
											OFFSET 4.52789 0.00000 0.00000
											CHANNELS 3 Zrotation Xrotation Yrotation
											JOINT LeftHandPinky3
											{
												OFFSET 2.46976 0.00000 0.00000
												CHANNELS 3 Zrotation Xrotation Yrotation
												End site
												{
													OFFSET 0.00000 0.00000 0.00000
												}
											}
										}
									}
								}
							}
						}
					}
					JOINT pCube4
					{
						OFFSET 0.00000 10.91090 1.10792
						CHANNELS 3 Zrotation Xrotation Yrotation
						End site
						{
							OFFSET 0.00000 0.00000 0.00000
						}
					}
				}
			}
		}
	}
	JOINT RightUpLeg
	{
		OFFSET -9.98441 0.00000 0.00000
		CHANNELS 3 Zrotation Xrotation Yrotation
		JOINT RightLeg
		{
			OFFSET 0.00000 -42.11790 0.00000
			CHANNELS 3 Zrotation Xrotation Yrotation
			JOINT RightFoot
			{
				OFFSET 0.00000 -45.00020 -0.00001
				CHANNELS 3 Zrotation Xrotation Yrotation
				JOINT RightForeFoot
				{
					OFFSET 0.00000 -3.74820 0.00000
					CHANNELS 3 Zrotation Xrotation Yrotation
					JOINT RightToeBase
					{
						OFFSET 0.00000 0.06325 14.43120
						CHANNELS 3 Zrotation Xrotation Yrotation
						End site
						{
							OFFSET 0.00000 0.00000 0.00000
						}
					}
				}
			}
		}
	}
	JOINT LeftUpLeg
	{
		OFFSET 9.98441 0.00000 0.00000
		CHANNELS 3 Zrotation Xrotation Yrotation
		JOINT LeftLeg
		{
			OFFSET 0.00000 -42.11800 0.00000
			CHANNELS 3 Zrotation Xrotation Yrotation
			JOINT LeftFoot
			{
				OFFSET 0.00000 -45.00070 0.00000
				CHANNELS 3 Zrotation Xrotation Yrotation
				JOINT LeftForeFoot
				{
					OFFSET 0.00000 -3.74824 0.00000
					CHANNELS 3 Zrotation Xrotation Yrotation
					JOINT LeftToeBase
					{
						OFFSET 0.00000 0.06325 14.43110
						CHANNELS 3 Zrotation Xrotation Yrotation
						End site
						{
							OFFSET 0.00000 0.00000 0.00000
						}
					}
				}
			}
		}
	}
}
MOTION
Frames: 4
Frame Time: 0.050000
0.005494484532631982 0.04879577606243013 -0.03128977051034534 0.039393827484178794 -0.035782526140423584 0.04568277820585137 -2.541857363211607 -0.2945625452211363 -0.8986202396864489 -0.708120786393983 3.558215758307254 0.3192729727728202 -1.02870236837679 -2.28833332957548 -2.2744907040864972 0.3075102008384831 0.011388212506461354 -0.9840800717222156 -0.03485642636506589 13.068174687158823 0.0552512742616125 0.17708587257239417 0.41529335976303033 -0.30233599960754665 0.1773877595779622 -14.044513565470433 -0.03237176029138395 -4.138870158714229 1.5278732939653632 -14.446823468197762 69.29292361355502 9.533931143530134 9.9159499815537 50.488755333314394 4.768581085013387 94.56827267604015 25.243324534293702 -0.3512057606873788 -5.015560222113711 4.516956198675713 -0.128592829595992 -1.5443292101040487 -0.011545136177750685 -0.016220949816158 -56.187165843142786 0.01702100339114809 0.0019349290835556261 -56.211541377570185 -38.77445237227848 -0.0002324996900915559 0.03982933392499235 0.022278608322499345 0.004503269288589398 0.034161646176164684 0.048494733121313076 -0.020335724938662283 0.04286576466752961 -36.66460056730315 0.018201334435135007 0.026084187757825485 -0.025947086135520724 0.019358979418629792 -0.010092094373018563 -0.015936959297211263 -0.01495515222068827 0.00887563328012636 -19.72714481123884 0.017381387031885073 -0.03692736110828672 -0.035907466910545735 -0.04263500283173609 0.019602619671431534 0.03124592167751384 -0.006331277996551361 0.04182522717840537 24.10043828405781 0.038022973849229875 -0.01049481753513172 28.873488462797873 -0.02017153714680978 0.008804463313772602 28.890304736892706 0.006668978500915354 0.03962589052145199 6.9182743532480595 1.6787715250089597 11.876191840241134 -69.3240261037479 14.166646394454506 -15.094568974000435 -75.15444131406048 0.4410952715028057 -96.59436887132684 -17.495369333658275 -2.0789552291818 -0.06551066940278963 -0.5104682044242085 0.06750861783869411 -8.152727172480088 0.02914216689696166 0.020536313750207893 44.608277519182096 -0.02878740238834251 0.02166589534047173 44.52549495289499 12.49352958373551 -0.04898627478214661 0.00359608174771452 -0.025166186185745402 0.014709557780719007 0.024569575974287525 -0.015018226769225157 0.02815395598987526 0.021748068361835314 11.134434087545932 -0.038319483095361935 -0.041739832622918666 -0.017929869765455738 0.049467600552241996 0.04208157648550479 -0.04824926507538775 -8.43951361115213e-05 0.03218873135206051 4.784231328992672 0.016650407389677584 -0.03454016056210257 0.02151546393577087 0.01203942865834668 -0.04564569838893165 -0.024893028129270772 -0.017875809724945818 -0.006882025237313507 -5.587475381092661 -0.03100443183346017 0.0021552804256780513 -6.692882879631737 0.011557329736958008 0.03652984805361394 -6.727043756850186 0.039290959372847725 -0.0015472783772589162 -0.006267485410317661 -0.04574870156484901 0.019574895217752453 8.058803076096149 3.4889659407300067 -19.244504872131987 0.005618732096906495 10.351595390142561 0.010696627001414565 -5.640159840551181 -15.663055235561426 3.221477310591602 0.028218420627475704 0.008566371231861254 0.04607872293931665 0.0027595543139318926 4.721554337461504 0.03633071133167706 12.450784938119611 -8.220440962368711 6.884679147534005 0.025409749550788324 46.38873527492557 0.007628365604070107 -4.282855459631241 -14.75597033361437 -3.804879331308106 -0.038638449499004475 -0.04802685632323167 0.019332575284644556 0.02710418946687386 -10.758797985555832 -0.005667122069021402 
-0.049560725238620346 -0.002089435796159904 -0.009848024500781314 0.03513575938540816 0.0021050933224726256 -0.026466780689592795 -2.5886191593341525 -0.4290924358646375 -0.9453497033823077 -0.7545915128139921 3.501437966683313 0.2913454486994496 -1.0759054419358227 -2.2642115995215235 -2.19457330112754 0.32084390599852775 -0.002517514459482357 -0.9334128324484487 -0.030283129932174028 12.961272952460929 0.11571020448518077 0.2386570467524502 0.3403183297656494 -0.2514415899114178 0.10849364861361158 -14.192983509205364 0.024325940057640976 -4.0476499555692484 1.5094427786921811 -14.558056061378617 69.6387211309351 10.713755843358749 8.687555798862657 50.579765560169136 5.459849098974122 94.04328044951532 25.20648917747197 -0.3358549563024729 -4.976929797020046 4.553521920742591 -0.12960128635226098 -1.5997648843291448 0.0241710614187565 -0.03488507282832388 -56.19696549879322 -0.013637218986407424 -0.0005474324333160822 -56.2489014577203 -38.80968850240697 0.011726890711610571 0.028393739559798122 -0.018506259924243842 -0.035135928987079096 -0.0484725729974531 0.03581074597073939 -0.010779375592216953 0.0020569343120725643 -36.68576254039929 0.007206378719552393 0.01690177421710155 -0.010874281189278794 -0.006924122875087173 0.020537233633123944 -0.03506871040046089 0.004125449159448997 0.006976339136313349 -19.748672104223488 -0.04685476069597259 0.03293776938977114 -0.012028091971869903 -0.0074599372866464226 -0.01058488608413753 0.008892700560260649 -0.023433589096078653 0.012536146600078828 24.060100024920214 -0.04281484113339273 -0.02139540891324689 28.90023580958081 0.020814257077777055 0.027959530120984098 28.873797801763754 -0.04323816757638295 -0.00535049566728223 6.929226802509644 1.5939743572390856 11.947801030424698 -70.05847473902374 14.18973892845409 -13.98653112050817 -78.27037093814708 0.9670507242897896 -97.7725488848491 -18.070367955351657 -2.112738716515248 -0.1012912657169717 -0.4816732311368782 0.043869467849707744 -8.093162213091118 0.04432825160796706 -0.009959477888199699 44.540091962516435 0.0022616024841072687 0.00694053090108281 44.59047995425586 12.50684144096728 0.024529452132672314 -0.012111623465880423 0.026051268721755366 -0.013060734287329977 -0.03418034033914019 -0.01026165239807017 -0.018723135787474844 0.04497864942837223 11.057199625065646 -0.005677522178386989 -0.018829965346342917 -0.01973176109235481 0.037380849074882344 0.007257025465268122 0.0480238057679157 -0.038564627035520924 -0.014764058011595768 4.765064255378883 -0.023088743585214493 0.01762830917000418 0.026035905411200964 0.04729458492178769 -0.02393694836308824 -0.022036391716606256 -0.02808744016144794 -0.03346149024531745 -5.560490090801634 0.03979489030678305 0.0038349118046417797 -6.759813370459322 -0.03353627779280315 -0.042351630819286445 -6.6899299015281155 -0.0027743004684532536 0.016452926346801306 -0.0033635628444933967 -0.026014636877693145 0.033307867897805994 8.004927937784135 3.4671673835981482 -19.218238063419438 0.010332120991163292 10.407509633111854 -0.013887113392761847 -5.646731782771096 -15.646084824425156 3.15569753875901 -0.02949179795558305 -0.035828584783766264 0.012969136917929242 0.00017538210349190637 4.725311003020797 -0.012570630191500618 12.451032778762436 -8.197775500073567 6.876030357216862 0.004399704449072701 46.404664911209636 -0.001501096163790447 -4.325675135317772 -14.70804512100481 -3.8733365085208202 -0.0036340688240805506 -0.03921988177574721 0.02584467541322961 -0.009661744912100914 -10.741877006148993 0.0211771602901387 
0.007596465474335389 -0.04187662888615442 -0.0049904558816185425 -0.030317312706205177 0.03042543148651011 -0.02737497238481515 -2.5974804931917608 -0.4539318072048041 -0.8823535399803684 -0.7223323312609944 3.5613092447852863 0.3116302151243271 -1.0966693652530537 -2.2297644984494034 -2.240148444937206 0.26629135942037035 0.028284950498715627 -1.0033633544494185 -0.06607125198042793 12.822508635402306 0.08409802910812289 0.22717569432112722 0.30937198198521243 -0.35952047828201783 0.15503742859210765 -14.184609137226495 -0.01815483755062076 -3.96754147651978 1.4841795536373703 -14.6089966042889 69.65876112686912 10.52058608441049 7.5321179074803775 49.18185500685367 6.052311260788814 92.85272416677024 24.910857854133134 -0.32978768977351874 -4.960856469408753 4.51282412492754 -0.1425377778889669 -1.5939271863154796 0.03823755207328363 0.031781624762947734 -56.25993114749385 0.03211545775132142 0.016142667624571762 -56.24052316469017 -38.72887193902289 -0.035765837379265634 0.015426083215119823 -0.030776904286084077 0.015957177607922726 -0.0163705113950349 -0.016723036245128317 0.03433457389667042 0.022841936844753875 -36.70043761427137 0.024225502059640625 0.018878196482606156 -0.047871759569530464 -0.044872034127182284 0.03866409586366565 0.017938389897867422 -0.030365662511596087 0.0271076702596212 -19.803146164798715 0.029137229247003613 -0.014200775062416552 0.016621055191992834 0.01291002177230761 0.02135181427184021 0.03544118542812556 -0.04443680117436553 -0.03621346417600648 24.0151916470168 0.029913574868038553 -0.02200825281289364 28.830839361424864 0.003810070131168723 0.02374093292802972 28.842966493280894 -0.021585547946570156 0.03328246033495402 6.753255819363381 1.6418914189839513 12.023258051017299 -70.44552970913023 13.400639975012448 -13.249131872516424 -78.91676686523657 0.9970160468807537 -98.14334407490838 -17.653048114740397 -1.8279346049902794 -0.45469332977755805 -0.4411201915300681 0.07054138173621519 -8.119284949422541 0.013523812991642582 -0.0088534893699036 44.544645673505876 0.04834180297253618 0.0270427357930244 44.546444521159486 12.413596755437576 0.030532425679820285 -0.02612693682993882 0.005700105840140627 -0.038678211656461826 0.02782658251943987 0.023549469101971074 -0.004605469143877104 0.005501854864100146 11.15055302001795 -0.04834664877598305 -0.04671670705795855 0.044580166762096925 -0.015548650344954472 0.048823798560284425 -0.03268623687701891 -0.029985764006031885 -0.03446368257806905 4.7974281647180765 -0.002866931675272684 0.018118733839197994 0.03360615042588638 -0.040208820829206855 0.02054775339542514 -0.04124541011687744 -0.044665749621160655 0.028721596304889706 -5.551883637129972 0.013056997029169053 -0.0042687373559134306 -6.749804297363558 0.033578208601295394 -0.026840225577238797 -6.703310532377898 -0.03191029794147141 0.014303199146609609 0.04085605463348382 -0.03817459190723983 -0.01690205561159483 8.08651457088752 3.4505570148405265 -19.19169977491962 0.04350452182934878 10.366719199921704 -0.008645609049782194 -5.635889770347986 -15.653699870416522 3.1648570693202793 0.00157510283604794 0.02407248645663122 -0.00024996581457683344 -0.009205129487565687 4.715118713379824 -0.012076595051521479 12.422955696701983 -8.257750861466853 6.915660548875957 -0.03290703662441179 46.36480156769045 -0.03417778225401511 -4.317049243987382 -14.764173339022472 -3.8587542068660405 -0.011463312832181757 -0.004888810028701863 -0.04494471266224883 -0.03744696032292903 -10.788822215531972 -0.03639158047448692 
0.030874709975660865 -0.0279835987813522 0.01657440412405011 0.02150913727475856 0.009241984879756766 0.036974544459802826 -2.6811819485817874 -0.4498381333597661 -0.8906871165943249 -0.7343860741723972 3.5537586341937466 0.3354502339686894 -1.0885641452191366 -2.29240486843043 -2.308632911850336 0.29160361735883417 -0.02184073442818612 -0.9587417587351683 -0.05818789958077912 12.634388218256863 0.06694009948427088 0.23890553050106944 0.2858230315282097 -0.30838819196160033 0.16790473686822802 -14.259835483392807 -0.01836344752615048 -3.8417340175724726 1.4754253148338596 -14.69816423452988 69.67402443655604 9.942303749139267 6.55605048256313 47.79339580070202 6.533816845103293 91.94244400829528 24.728773779956974 -0.30270760946965286 -5.133995841205929 4.500090724594898 -0.14921596696116515 -1.5829703139519324 0.031972155243249555 -0.03991700600653885 -56.19610300837624 0.03009924146807252 -0.03290841031385601 -56.265794480205294 -38.736839535846514 0.00899249799899093 0.024677646149222743 -0.016267110779942983 0.036587393062340774 0.003760976476814035 -0.006707730446925875 0.03817193585348093 0.015258834530289665 -36.687482337820356 0.02533077303910876 -0.016606882783656542 -0.001661417415370588 -0.017359580301459985 -0.017547643272558915 0.019631770352452182 0.03316277562906079 -0.024193847905741958 -19.76844898827046 -0.008156200077012695 0.036893806164635126 -0.038619228393861164 -0.04224618652265337 -0.02373582340988641 0.035939360313393676 0.02724228969683192 -0.013163523440939746 24.099905605014353 -0.01835397968369593 -0.031607115081293914 28.834702712541215 0.02356878626648421 -0.0019400962874971588 28.851824819217867 -0.040902443826158874 0.010782588147986126 6.651874938104197 1.6181101686395352 12.101916387050878 -70.7847115873727 12.639066951821178 -12.541498337870216 -78.9792837954038 1.0624138468179638 -98.23007454396021 -17.159468530438556 -1.6002637341652508 -0.7956233851565686 -0.42723514169780147 0.035953714726765305 -8.113762954849971 0.047897965904948846 0.03272711898912381 44.528506426972164 -0.0007344128894016682 -0.032806275655126685 44.541096323250045 12.440804851160413 0.0031043695847991775 0.046582442854586834 -0.01254660934356738 -0.03440594919040584 0.03384639230660523 -0.013390993253007433 0.031400565815467615 -0.029867518604215427 11.112206901995798 0.024787638579405438 -0.001499982062399036 -0.002760641853263988 -0.013167705918041336 0.03437929601403644 0.0034596711873285235 -0.008041217673616133 0.035501637247620337 4.778282612526459 -0.03197564446477284 -0.019690689360555146 0.0365665473678819 -0.00902476786879315 0.025013178616620946 -0.011810489461335283 0.013793545060335345 0.02977543749203319 -5.571484167275802 -0.025896634435860193 -0.03292295582618476 -6.7166759737517046 0.040454097121669946 -0.00936466476697938 -6.730591012955936 0.007576006911297618 0.04599371281354341 0.04285432937182426 0.034279661637039334 -0.03949869551651031 8.024160973962674 3.5191941106776077 -19.229002603300497 -0.032951779435056984 10.389767266777321 0.05334293319157517 -5.628436324587185 -15.61805101330734 3.202096620599795 0.011384015600690606 -0.03248733123592649 0.036333210160081605 0.03311707342408676 4.664047830281482 0.04494603884865154 12.424013646080084 -8.214813253322168 6.903636451966978 -0.017256335112799254 46.373316662214116 -0.004407634615615484 -4.316478041320343 -14.78698673455557 -3.8262047098888665 0.02145182464384161 0.012628668406928133 -0.0465160695857404 0.009593602873844793 -10.784597271171275 0.0022761168553920848 
